<?xml version="1.0" standalone="no"?>
<!DOCTYPE svg PUBLIC "-//W3C//DTD SVG 20010904//EN"
 "http://www.w3.org/TR/2001/REC-SVG-20010904/DTD/svg10.dtd">
<svg version="1.0" xmlns="http://www.w3.org/2000/svg"
 width="256.000000pt" height="256.000000pt" viewBox="0 0 256.000000 256.000000"
 preserveAspectRatio="xMidYMid meet">

<g transform="translate(0.000000,256.000000) scale(0.100000,-0.100000)"
fill="#000000" stroke="none">
<path d="M1105 2410 l-170 -150 -257 0 -258 0 0 -223 0 -223 -205 -177 -205
-178 0 -729 0 -730 1270 0 1270 0 -2 732 -3 732 -202 176 -203 175 0 223 0
222 -257 0 -258 0 -172 150 c-95 83 -173 150 -175 149 -2 0 -79 -67 -173 -149z
m283 -52 l106 -93 -107 -3 c-59 -1 -155 -1 -213 0 l-107 3 104 92 c57 51 105
92 107 93 2 0 51 -42 110 -92z m672 -653 l0 -475 40 0 40 0 2 235 3 235 145
-125 c80 -69 145 -129 145 -135 0 -5 -168 -138 -374 -295 l-375 -285 -410 0
-411 0 -373 284 c-205 157 -373 288 -374 292 0 4 66 65 148 136 l149 129 3
-235 2 -236 40 0 40 0 0 475 0 475 780 0 780 0 0 -475z m410 -961 l0 -606
-347 338 c-192 186 -348 340 -348 343 0 4 686 531 693 531 1 0 2 -273 2 -606z
m-2021 331 l342 -260 -53 -49 c-29 -27 -187 -179 -350 -339 l-298 -289 0 602
c0 331 4 600 9 598 4 -1 162 -120 350 -263z m1600 -642 l359 -348 -564 -3
c-310 -1 -818 -1 -1128 0 l-563 3 356 347 356 347 413 0 413 1 358 -347z"/>
<path d="M1172 2036 c-164 -40 -324 -170 -401 -326 -58 -119 -77 -219 -63
-329 28 -207 164 -364 363 -416 115 -31 306 -12 427 41 58 25 73 47 49 71 -14
14 -25 13 -112 -15 -113 -37 -225 -49 -310 -33 -300 55 -437 385 -278 669 79
142 237 251 393 272 254 35 489 -111 530 -329 30 -157 -16 -313 -103 -354 -67
-32 -118 -18 -136 36 -12 36 -8 75 29 287 25 147 25 156 -5 176 -23 15 -27 15
-50 0 -14 -9 -25 -23 -25 -31 0 -20 -16 -19 -48 4 -46 31 -100 44 -173 39
-126 -9 -222 -77 -277 -197 -22 -47 -27 -70 -27 -146 0 -95 12 -132 59 -183
81 -90 257 -93 370 -7 l46 35 15 -30 c30 -59 125 -83 217 -56 101 29 166 120
188 263 39 254 -122 486 -385 553 -89 23 -212 25 -293 6z m190 -347 c21 -5 50
-20 65 -33 l27 -23 -12 -83 c-16 -112 -49 -181 -103 -217 -37 -24 -53 -28
-113 -28 -85 0 -125 23 -150 85 -32 81 -15 170 45 235 61 66 150 90 241 64z"/>
<path d="M1070 450 l0 -40 45 0 45 0 0 40 0 40 -45 0 -45 0 0 -40z"/>
<path d="M1240 450 l0 -40 40 0 40 0 0 40 0 40 -40 0 -40 0 0 -40z"/>
<path d="M1400 450 l0 -40 45 0 45 0 0 40 0 40 -45 0 -45 0 0 -40z"/>
</g>
</svg>
