<?xml version="1.0" standalone="no"?>
<!DOCTYPE svg PUBLIC "-//W3C//DTD SVG 20010904//EN"
 "http://www.w3.org/TR/2001/REC-SVG-20010904/DTD/svg10.dtd">
<svg version="1.0" xmlns="http://www.w3.org/2000/svg"
 width="300.000000pt" height="300.000000pt" viewBox="0 0 300.000000 300.000000"
 preserveAspectRatio="xMidYMid meet">
<metadata>
Created by potrace 1.14, written by Peter Selinger 2001-2017
</metadata>
<g transform="translate(0.000000,300.000000) scale(0.100000,-0.100000)"
fill="#000000" stroke="none">
<path d="M1001 2836 c-1 -16 -3 -17 -18 -5 -14 12 -16 12 -11 -1 4 -11 -2 -15
-18 -16 -13 -1 -24 2 -24 8 0 5 -4 7 -10 3 -5 -3 -6 -13 -3 -23 6 -16 6 -16
-11 1 -9 9 -20 17 -23 17 -4 0 -3 -3 0 -7 11 -10 -27 -32 -38 -23 -6 5 -17 4
-25 -2 -12 -8 -12 -9 3 -4 11 4 16 2 11 -5 -3 -6 -17 -9 -29 -7 -15 3 -22 1
-19 -7 3 -8 -6 -12 -26 -13 -17 0 -28 3 -25 8 3 5 0 12 -6 16 -8 4 -9 3 -5 -4
4 -7 2 -12 -3 -12 -6 0 -11 5 -11 11 0 5 -6 7 -12 3 -10 -6 -10 -4 -2 7 8 11
6 19 -9 33 -15 14 -19 15 -14 4 4 -12 1 -14 -14 -11 -10 3 -16 9 -14 14 3 4
-4 7 -15 6 -11 -1 -20 -4 -20 -8 0 -4 -8 -6 -17 -4 -10 1 -17 8 -15 16 2 9 0
10 -11 1 -8 -7 -18 -8 -22 -4 -5 4 -5 1 -1 -6 4 -7 12 -9 18 -6 6 4 8 2 4 -4
-3 -6 -15 -9 -26 -7 -18 3 -25 -6 -21 -28 1 -5 -3 -6 -9 -2 -6 3 -8 10 -6 14
3 4 0 8 -7 8 -7 0 -13 -8 -13 -18 0 -10 4 -15 8 -13 4 3 8 0 8 -5 0 -6 -7 -11
-16 -11 -8 0 -12 -5 -9 -10 4 -6 12 -7 18 -3 7 3 3 -4 -8 -17 -11 -13 -15 -20
-9 -17 7 4 15 0 18 -9 4 -10 2 -13 -6 -8 -8 5 -9 1 -4 -12 8 -21 9 -24 7 -42
0 -7 -5 -10 -11 -7 -6 3 -7 -1 -4 -9 4 -10 1 -16 -7 -16 -9 -1 -8 -4 4 -11 9
-5 17 -15 17 -20 0 -6 -4 -8 -8 -5 -5 3 -9 -1 -9 -9 0 -8 4 -12 8 -10 4 3 9
-2 12 -10 4 -9 1 -12 -9 -8 -18 7 -18 -4 1 -23 14 -14 10 -48 -4 -39 -4 2 -8
-3 -8 -11 0 -9 6 -13 16 -9 11 3 10 0 -3 -10 -11 -8 -14 -15 -8 -15 7 0 12 -5
12 -11 0 -6 -7 -8 -17 -4 -13 4 -12 1 5 -15 23 -22 31 -40 9 -22 -10 8 -13 6
-13 -9 0 -13 5 -18 16 -14 9 3 8 -1 -4 -10 -14 -11 -16 -15 -5 -15 12 0 12 -2
-1 -10 -10 -6 -11 -10 -2 -10 6 0 12 -5 12 -11 0 -6 -7 -8 -17 -4 -13 4 -12 1
5 -15 12 -11 22 -26 22 -32 0 -7 -6 -4 -13 6 -12 16 -13 16 -13 -3 0 -12 7
-21 16 -22 10 0 9 -3 -5 -9 -13 -6 -15 -9 -5 -9 13 -1 13 -2 0 -11 -10 -6 -11
-10 -2 -10 6 0 12 -5 12 -11 0 -6 -7 -9 -14 -6 -10 4 -13 1 -9 -8 3 -8 9 -13
13 -10 9 6 23 -25 15 -33 -3 -3 -5 -1 -5 5 0 5 -7 10 -15 10 -8 0 -11 -5 -7
-11 10 -16 9 -30 -3 -39 -6 -5 -2 -6 9 -3 17 6 17 5 5 -11 -8 -9 -9 -14 -3
-10 7 4 14 -2 17 -14 5 -17 3 -18 -9 -8 -12 10 -15 10 -12 -2 2 -8 9 -19 17
-25 11 -9 12 -12 1 -19 -9 -6 -11 -4 -5 6 5 8 4 11 -1 6 -14 -14 -11 -61 4
-73 12 -9 13 -12 2 -19 -9 -6 -11 -4 -5 6 5 8 4 11 0 6 -14 -13 -16 -49 -3
-64 9 -11 9 -16 -3 -24 -10 -6 -10 -9 -1 -9 6 0 12 -5 12 -11 0 -5 -4 -8 -8
-5 -5 3 -9 -1 -9 -9 0 -8 4 -12 8 -10 8 6 22 -25 14 -33 -3 -3 -5 -1 -5 5 0 5
-6 10 -14 10 -8 0 -12 -6 -9 -14 3 -7 13 -13 22 -13 14 0 14 -2 1 -10 -8 -5
-11 -10 -6 -10 5 0 2 -8 -5 -17 -10 -11 -10 -14 -2 -9 7 4 13 2 13 -3 0 -6 -8
-11 -17 -12 -14 0 -15 -2 -3 -6 17 -7 30 -23 30 -37 0 -6 -7 -1 -15 10 -14 18
-14 18 -10 -3 2 -13 -1 -23 -8 -23 -7 0 -6 -4 3 -10 8 -5 11 -10 6 -10 -5 0
-4 -6 1 -12 6 -7 13 -22 17 -32 6 -16 4 -17 -9 -6 -13 11 -16 11 -13 -1 2 -8
9 -19 17 -25 11 -9 12 -12 1 -19 -9 -6 -11 -4 -5 6 5 8 4 11 -1 6 -14 -14 -11
-61 4 -73 12 -9 13 -12 2 -19 -9 -6 -11 -4 -5 6 5 8 4 11 -1 6 -10 -9 -14 -58
-5 -52 4 2 8 -5 8 -16 2 -17 -1 -18 -13 -9 -19 17 -18 5 2 -15 15 -15 15 -18
-2 -38 -13 -15 -14 -18 -3 -9 14 10 18 10 23 -4 9 -22 7 -31 -3 -16 -7 11 -9
11 -14 -2 -4 -11 -1 -16 11 -17 14 0 14 -2 -3 -9 -13 -6 -15 -9 -5 -9 13 -1
13 -2 0 -11 -10 -6 -11 -10 -2 -10 6 0 12 -5 12 -11 0 -6 -7 -9 -14 -6 -10 4
-13 1 -9 -8 3 -8 9 -13 13 -10 9 6 23 -25 15 -33 -3 -3 -5 -1 -5 5 0 5 -7 10
-15 10 -8 0 -11 -5 -7 -11 10 -16 9 -30 -3 -39 -6 -5 -2 -6 9 -3 17 6 17 5 5
-11 -9 -11 -10 -14 -2 -9 8 4 13 1 13 -9 0 -9 -5 -13 -10 -10 -5 3 -10 1 -10
-4 0 -6 4 -11 8 -11 4 0 8 -9 9 -20 1 -11 -2 -18 -6 -16 -4 3 -8 -1 -8 -9 0
-8 4 -12 9 -9 4 3 8 1 8 -5 0 -5 -6 -12 -12 -14 -10 -4 -10 -6 0 -6 6 -1 12
-6 12 -12 0 -6 -7 -9 -14 -6 -10 4 -13 1 -9 -8 3 -8 9 -13 13 -10 4 3 11 -2
14 -11 4 -10 2 -13 -6 -8 -8 5 -9 1 -4 -12 8 -21 9 -24 7 -41 0 -7 -6 -13 -12
-13 -8 0 -8 4 0 14 9 10 7 17 -6 27 -16 13 -17 12 -5 -3 9 -11 10 -18 2 -23
-15 -9 8 -37 24 -29 6 3 0 -5 -14 -17 -17 -15 -19 -20 -7 -16 9 4 17 2 17 -3
0 -6 -5 -10 -11 -10 -6 0 -3 -7 5 -16 14 -14 14 -34 0 -34 -3 0 -3 4 1 9 3 5
2 12 -3 15 -4 2 -9 -4 -9 -15 -1 -10 2 -19 5 -19 4 0 8 -9 9 -20 1 -11 -2 -18
-6 -16 -4 3 -8 -1 -8 -9 0 -8 4 -12 9 -9 4 3 8 1 8 -5 0 -5 -6 -12 -12 -14
-10 -4 -10 -6 0 -6 6 -1 12 -6 12 -12 0 -6 -7 -9 -14 -6 -10 4 -13 1 -9 -8 3
-8 9 -13 13 -10 4 3 11 -2 14 -11 4 -10 2 -13 -6 -8 -8 5 -9 1 -4 -12 8 -21 9
-24 7 -41 0 -7 -6 -13 -12 -13 -8 0 -8 4 0 14 9 10 7 17 -6 27 -16 13 -17 12
-5 -3 9 -11 10 -18 2 -23 -15 -9 8 -37 24 -29 6 3 0 -5 -14 -17 -17 -15 -19
-20 -7 -16 9 4 17 2 17 -3 0 -6 -6 -10 -12 -10 -8 0 -9 -3 -3 -8 6 -4 17 -16
25 -27 14 -19 14 -19 -6 -3 -19 16 -20 16 -20 -2 0 -10 4 -16 8 -14 4 3 8 0 8
-5 0 -6 -6 -11 -12 -11 -9 0 -8 -4 2 -10 13 -9 13 -10 0 -10 -13 0 -13 -2 -1
-9 13 -8 13 -12 0 -27 -8 -10 -9 -15 -3 -11 7 4 14 0 17 -8 4 -9 1 -12 -7 -9
-7 3 -13 -2 -13 -11 0 -9 6 -14 14 -11 7 3 13 1 13 -4 0 -6 -8 -10 -17 -10
-15 0 -16 -2 -3 -10 10 -6 11 -10 3 -10 -7 0 -13 -5 -13 -11 0 -5 4 -8 9 -5 5
3 8 -5 8 -18 0 -18 -4 -23 -16 -19 -9 2 -4 -4 12 -13 15 -10 27 -27 27 -37 0
-17 1 -17 16 -3 21 22 27 20 14 -5 -7 -11 -9 -23 -6 -27 3 -3 6 0 6 6 0 6 11
9 27 6 24 -5 25 -3 12 13 -12 16 -12 17 1 7 20 -15 70 -24 70 -13 0 5 -5 9
-12 9 -6 0 -8 3 -5 7 4 3 16 -2 27 -12 11 -10 23 -15 27 -12 3 4 1 7 -5 7 -7
0 -12 5 -12 11 0 5 5 7 10 4 6 -3 10 -1 10 4 0 6 5 11 11 11 5 0 7 -4 4 -10
-3 -6 1 -7 10 -4 14 6 14 8 -2 21 -10 8 -13 12 -6 8 9 -4 11 3 8 25 -2 16 1
30 6 30 6 0 8 -8 5 -17 -3 -10 -1 -25 4 -33 6 -10 8 0 5 30 -2 24 1 50 7 57 7
9 7 17 -1 26 -8 10 -7 17 2 27 9 10 9 11 -1 6 -9 -6 -11 -1 -8 18 3 18 1 24
-6 20 -7 -5 -8 -2 -3 6 4 7 2 16 -6 20 -10 7 -10 12 -1 23 7 7 11 16 9 18 -1
2 2 1 8 -4 6 -5 4 -11 -5 -17 -9 -6 -10 -10 -3 -10 19 0 26 20 12 36 -9 11 -9
18 -1 26 7 7 12 16 12 21 0 5 -9 -1 -20 -14 -12 -15 -19 -18 -18 -9 2 8 7 18
12 21 12 10 15 68 3 76 -6 4 -7 1 -2 -8 5 -8 4 -10 0 -6 -5 4 -10 14 -11 22
-2 11 2 12 16 5 14 -8 18 -6 16 7 -2 8 -10 21 -20 28 -16 12 -16 14 4 20 15 5
19 12 15 23 -4 10 -8 27 -9 39 -1 12 -6 26 -10 30 -5 5 -6 1 -1 -7 5 -8 4 -12
0 -7 -5 4 -10 14 -11 22 -2 11 2 12 16 5 19 -10 22 3 6 28 -5 8 -4 18 3 25 6
6 11 15 11 20 0 5 -8 -1 -18 -13 -15 -18 -19 -20 -19 -7 0 10 4 17 9 17 4 0 8
7 8 15 0 8 -6 15 -12 15 -8 0 -9 3 -3 8 16 11 41 47 29 39 -8 -4 -11 2 -10 18
0 14 5 25 10 25 6 0 1 6 -9 14 -10 7 -20 21 -21 31 -1 9 1 14 4 10 4 -4 7 -11
7 -16 0 -5 3 -9 8 -9 4 0 9 0 12 0 3 0 -1 10 -10 23 -13 21 -13 25 2 47 9 13
11 20 5 16 -13 -8 -17 6 -5 18 13 12 11 33 -3 33 -7 0 -11 -4 -8 -9 3 -4 1 -8
-5 -8 -5 0 -8 15 -6 33 2 17 4 36 4 41 1 5 9 2 19 -5 13 -10 12 -8 -3 9 -18
22 -30 76 -14 66 4 -2 6 -13 4 -23 -2 -11 2 -22 9 -24 14 -5 15 20 2 41 -4 7
-2 20 6 29 9 12 9 15 1 9 -17 -9 -17 6 0 23 10 11 9 12 -1 6 -16 -8 -13 26 3
37 6 5 6 8 -1 8 -6 0 -10 10 -9 23 3 31 -5 48 -19 40 -6 -4 -6 0 2 9 8 10 9
19 3 22 -8 5 -8 15 -1 46 0 3 7 -3 15 -14 13 -18 14 -18 12 2 0 11 -5 18 -9
16 -4 -3 -8 2 -8 10 0 9 5 16 12 16 6 0 3 7 -8 16 -10 8 -14 13 -7 10 6 -4 15
-1 19 5 4 8 3 9 -4 5 -9 -5 -11 10 -8 54 1 34 -1 63 -7 67 -6 3 -7 1 -3 -5 4
-7 2 -12 -3 -12 -18 0 -12 18 10 33 16 11 19 20 12 34 -5 10 -9 25 -8 33 1 8
-5 23 -13 33 -9 9 -12 20 -9 24 4 3 7 2 7 -4 0 -6 7 -14 16 -17 13 -5 14 -3 6
6 -11 15 -10 77 2 96 4 7 5 16 2 19 -3 4 -6 2 -6 -4 0 -6 -8 -14 -17 -18 -15
-5 -16 -4 -5 6 14 15 17 43 3 35 -11 -7 -8 21 4 31 4 4 5 2 1 -4 -5 -9 -2 -11
8 -7 19 7 20 16 4 32 -9 9 -9 12 2 12 9 0 8 5 -6 16 -10 8 -14 13 -7 10 6 -4
15 -1 19 5 4 8 3 9 -4 5 -7 -4 -12 -1 -12 8 0 9 6 16 13 16 7 0 8 3 2 8 -6 4
-10 24 -10 45 0 21 -4 41 -9 44 -5 4 -6 1 -2 -5 4 -7 2 -12 -3 -12 -14 0 -14
17 0 26 8 4 7 9 -2 16 -10 6 -7 7 9 3 22 -6 31 8 12 20 -8 5 -7 12 2 23 11 13
11 14 -1 7 -11 -6 -13 -3 -9 13 4 12 1 25 -4 29 -7 3 -8 1 -4 -5 4 -7 2 -12
-3 -12 -18 0 -12 18 10 33 l21 15 -21 7 c-16 5 -20 12 -16 33 2 14 0 31 -6 38
-8 9 -4 12 14 10 24 -3 30 15 13 42 -4 7 -2 20 6 29 9 12 9 15 1 9 -7 -4 -13
-3 -13 1 0 5 6 15 13 22 8 10 8 12 0 7 -12 -6 -26 8 -29 31 -1 6 5 9 13 6 12
-5 12 -7 1 -15 -10 -8 -10 -9 2 -5 9 2 14 14 13 30 -1 16 3 26 10 24 6 -1 11
9 12 23 0 16 6 25 16 25 9 0 33 15 54 32 32 27 41 31 53 20 13 -10 15 -9 10 4
-4 11 0 15 15 13 12 -1 22 -3 22 -4 0 -1 8 -3 18 -5 9 -2 17 1 17 7 0 5 9 6
21 3 16 -5 19 -4 14 5 -5 9 -4 11 4 6 6 -4 9 -12 6 -17 -4 -5 10 -9 30 -9 26
0 34 -3 29 -12 -5 -9 -2 -9 9 1 11 8 17 9 17 3 0 -6 6 -9 14 -6 7 3 20 -2 29
-10 16 -17 32 -22 23 -8 -3 5 1 9 9 9 12 0 12 -4 -2 -20 -10 -11 -12 -17 -6
-13 15 8 62 -23 63 -41 0 -7 6 -13 13 -13 8 0 9 -3 1 -8 -14 -9 -14 -42 0 -42
6 0 4 -5 -4 -10 -10 -6 -11 -10 -2 -10 6 0 12 -5 12 -11 0 -5 -4 -7 -10 -4 -5
3 -10 1 -10 -4 0 -6 6 -11 13 -11 8 0 7 -4 -3 -10 -14 -9 -7 -14 13 -11 5 1 5
-4 1 -11 -12 -18 -11 -40 1 -58 9 -13 8 -13 -7 -1 -11 8 -18 9 -18 3 0 -6 5
-14 10 -17 8 -5 7 -12 -2 -23 -10 -12 -10 -14 0 -8 6 4 12 2 12 -3 0 -6 -6
-11 -12 -11 -9 0 -8 -4 2 -10 14 -9 7 -14 -15 -11 -5 1 -2 -5 8 -13 14 -10 15
-15 5 -19 -10 -4 -10 -6 0 -6 6 -1 12 -6 12 -12 0 -5 -4 -7 -10 -4 -5 3 -10 1
-10 -4 0 -6 6 -11 13 -11 8 0 7 -4 -3 -10 -11 -7 -11 -10 -2 -10 7 0 10 -5 7
-10 -4 -6 -11 -7 -17 -4 -7 4 -8 2 -4 -5 4 -6 12 -8 18 -5 7 5 8 2 2 -7 -13
-21 -14 -39 -2 -39 6 0 4 -7 -3 -17 -11 -13 -11 -17 -1 -20 6 -3 12 -9 12 -14
0 -4 -8 -6 -17 -2 -16 5 -17 4 -2 -8 9 -8 19 -23 23 -34 6 -19 6 -19 -8 -1
-14 18 -15 18 -13 -3 1 -11 4 -21 8 -21 4 0 6 -8 4 -17 -1 -10 -8 -17 -16 -15
-9 2 -10 0 -1 -11 9 -10 9 -17 -1 -26 -6 -7 -7 -11 -2 -9 6 2 10 -1 10 -7 0
-5 -3 -9 -7 -8 -4 2 -5 -4 -1 -13 4 -11 8 -12 13 -4 5 8 9 7 13 -5 4 -9 3 -13
-3 -10 -6 3 -10 1 -10 -5 0 -6 -5 -8 -12 -4 -7 5 -8 3 -4 -5 5 -7 15 -10 25
-7 13 5 13 3 -2 -8 -18 -14 -18 -15 0 -26 15 -10 16 -11 1 -6 -10 3 -20 0 -24
-6 -5 -7 -2 -8 6 -3 10 6 12 4 7 -8 -3 -10 -2 -17 3 -17 6 0 10 -5 10 -11 0
-5 -4 -8 -9 -5 -5 4 -8 -2 -7 -11 2 -10 8 -18 14 -18 6 0 14 -3 17 -7 4 -4 -5
-5 -21 -3 -24 4 -26 3 -12 -5 10 -6 23 -21 28 -33 11 -21 11 -21 -4 -3 -9 11
-16 18 -17 15 0 -2 -2 -12 -4 -21 -2 -10 0 -18 5 -18 4 0 11 -7 14 -16 6 -15
4 -15 -10 -3 -16 13 -16 12 -4 -10 11 -22 11 -23 -6 -17 -18 6 -18 5 -2 -7 10
-8 15 -17 11 -21 -8 -8 -12 -66 -4 -62 3 2 12 -3 20 -11 12 -13 11 -14 -9 -8
-15 5 -20 4 -16 -4 4 -6 1 -11 -6 -11 -9 0 -9 -3 2 -10 8 -5 11 -10 6 -10 -5
0 -3 -7 4 -15 6 -8 9 -23 5 -34 -5 -17 -3 -20 12 -15 10 3 14 2 8 -3 -15 -12
-38 -56 -26 -48 6 3 11 3 12 -2 5 -47 3 -60 -6 -57 -6 3 -11 -7 -11 -21 0 -26
10 -33 21 -15 3 6 1 10 -6 10 -7 0 -10 3 -6 6 3 3 10 3 16 0 15 -9 2 -36 -18
-36 -14 -1 -14 -2 1 -11 11 -6 15 -16 11 -26 -5 -12 -3 -14 8 -8 12 7 12 6 1
-7 -7 -8 -10 -22 -6 -31 3 -8 1 -18 -5 -22 -7 -3 -8 0 -5 9 3 9 2 16 -3 16 -5
0 -9 -9 -10 -20 -1 -11 1 -20 5 -20 4 0 13 -9 20 -21 8 -12 9 -18 4 -15 -10 6
-23 -15 -29 -49 -2 -16 -1 -17 6 -5 5 8 8 17 6 20 -2 4 2 7 9 7 7 0 13 -6 13
-13 0 -7 -4 -11 -9 -8 -4 3 -8 -2 -8 -11 0 -10 5 -13 12 -9 7 4 8 3 4 -5 -4
-6 -11 -9 -16 -6 -5 3 -12 0 -16 -6 -4 -7 -3 -9 2 -6 6 3 16 2 24 -4 12 -7 11
-9 -5 -10 -11 -1 -24 -1 -28 0 -5 1 -6 -3 -2 -9 3 -6 11 -8 16 -5 5 4 9 1 9
-5 0 -6 5 -8 13 -4 9 6 9 5 0 -7 -9 -11 -9 -19 -2 -26 13 -13 4 -33 -14 -32
-9 0 -9 2 1 6 6 2 12 9 12 14 0 6 -4 8 -9 4 -6 -3 -8 4 -6 16 2 12 1 19 -3 15
-9 -9 -10 -76 -1 -71 9 6 5 -67 -5 -84 -6 -10 -5 -12 2 -7 7 4 12 1 12 -8 0
-9 -4 -16 -8 -16 -5 0 -9 -7 -9 -15 0 -8 4 -12 9 -9 4 3 8 -4 8 -15 0 -10 -6
-22 -12 -24 -10 -4 -10 -6 -1 -6 7 -1 10 -8 7 -16 -4 -8 -1 -15 4 -15 6 0 9 9
7 19 -2 11 4 26 13 33 13 11 14 11 7 -2 -6 -8 -10 -23 -11 -32 -3 -37 -4 -39
-16 -32 -7 4 -10 4 -6 -1 4 -4 2 -15 -5 -24 -11 -14 -10 -14 6 -2 17 13 18 12
11 -15 -4 -16 -12 -32 -18 -36 -7 -5 -7 -8 -1 -8 6 0 17 6 24 12 11 11 13 10
8 -4 -3 -10 -2 -20 4 -24 6 -3 6 -11 1 -17 -12 -17 -9 -36 8 -47 8 -5 10 -10
5 -10 -6 0 -20 7 -32 15 -20 14 -21 14 -10 -9 7 -13 16 -22 21 -19 5 4 6 1 2
-5 -4 -7 -2 -12 5 -12 7 0 4 -7 -7 -16 -10 -8 -13 -13 -7 -9 9 4 13 -5 13 -34
0 -23 4 -41 8 -41 4 0 8 -15 8 -34 0 -19 -4 -32 -8 -30 -4 3 -8 0 -8 -5 0 -6
6 -11 13 -11 8 0 7 -4 -3 -10 -12 -8 -12 -10 5 -10 17 -1 18 -2 4 -10 -18 -11
-19 -66 -1 -62 7 1 12 -4 12 -12 0 -7 7 -19 15 -26 16 -13 10 -35 -6 -24 -5 3
-7 9 -4 14 3 4 -3 14 -13 21 -15 13 -16 12 -3 -4 12 -16 9 -22 -12 -18 -5 1
-6 -3 -2 -9 3 -6 9 -8 13 -6 4 2 16 -2 27 -10 19 -14 19 -14 -1 -14 -18 -1
-18 -1 1 -13 12 -7 19 -20 17 -30 -2 -9 -8 -14 -14 -11 -7 4 -8 2 -4 -5 4 -6
12 -8 18 -5 7 5 9 1 5 -9 -6 -15 7 -17 136 -17 85 0 136 4 128 9 -7 5 -10 14
-7 20 4 6 0 14 -9 17 -14 6 -14 8 1 19 12 8 14 14 5 19 -6 4 -8 12 -5 18 4 7
-2 8 -17 3 -24 -7 -24 -7 -4 10 17 14 17 16 2 11 -16 -5 -16 -4 -1 19 15 23
13 30 -8 26 -16 -2 -11 70 6 82 7 6 4 7 -7 3 -10 -3 -21 -6 -23 -6 -3 0 -2 -5
2 -12 5 -7 3 -8 -5 -4 -9 6 -9 12 3 25 19 20 20 31 5 31 -5 0 -8 -4 -5 -8 3
-5 -1 -9 -8 -9 -7 0 -13 6 -13 13 0 7 4 11 9 8 16 -10 7 15 -9 26 -12 8 -13
10 -3 7 8 -2 21 2 28 9 8 9 9 14 2 14 -6 0 -9 4 -6 9 3 4 -2 17 -10 27 -9 10
-13 13 -9 7 13 -27 13 -50 -1 -50 -9 0 -11 4 -4 12 5 7 7 14 5 17 -10 10 -14
49 -4 43 5 -4 9 -1 9 4 0 6 -4 11 -8 11 -5 0 -9 13 -9 30 0 16 4 27 8 25 12
-8 4 24 -9 37 -18 18 -15 28 11 38 20 8 21 9 2 11 -11 1 -24 1 -29 0 -5 -1 -5
4 0 11 6 7 10 35 9 61 -2 46 7 68 19 48 4 -5 2 -12 -4 -16 -5 -3 -10 -11 -10
-18 0 -6 7 -2 15 9 13 17 12 21 -5 36 -20 16 -28 34 -11 23 5 -3 13 -1 16 5 4
6 1 9 -6 8 -9 -2 -13 9 -13 32 0 19 -4 38 -10 42 -7 5 -7 8 2 8 7 0 10 5 6 12
-4 7 -3 8 5 4 6 -4 8 -12 5 -18 -4 -7 -2 -8 4 -4 13 8 5 36 -12 37 -6 0 -2 4
9 9 16 7 17 9 3 9 -9 1 -20 6 -24 13 -5 7 -3 8 6 3 10 -6 11 -1 6 21 -4 18 -3
24 2 16 7 -11 10 -9 14 6 5 16 2 19 -11 14 -14 -5 -14 -3 2 21 13 20 13 25 3
21 -8 -3 -17 0 -22 7 -4 8 -3 10 4 5 7 -4 12 -4 13 1 4 43 3 61 -3 57 -3 -2
-10 0 -13 6 -4 6 -1 9 6 8 6 -2 14 3 16 10 3 7 -3 12 -14 13 -16 0 -16 1 2 9
11 5 14 9 8 9 -7 1 -13 5 -13 10 0 5 8 8 18 6 9 -1 11 0 4 2 -7 3 -9 9 -6 15
4 6 2 8 -3 5 -6 -4 -10 4 -10 18 0 14 4 22 10 18 6 -4 7 -1 2 7 -5 8 -1 18 11
27 18 13 17 14 -11 9 -28 -5 -29 -4 -11 9 12 9 15 15 7 15 -9 0 -10 4 -4 13
12 15 13 47 1 47 -4 0 -8 5 -8 11 0 5 6 7 13 3 6 -4 9 -4 5 1 -4 4 -3 14 4 22
9 11 8 13 -2 11 -8 -2 -14 2 -15 9 0 6 -3 14 -7 18 -9 9 2 35 14 35 6 0 5 -6
-2 -15 -7 -9 -8 -15 -2 -15 14 0 23 28 11 35 -5 4 -7 18 -5 32 4 18 1 23 -9
19 -9 -3 -12 0 -9 9 3 7 1 23 -6 34 -8 16 -8 21 2 19 6 -2 12 6 12 17 0 11 -6
19 -13 17 -7 -1 -10 2 -6 8 3 6 11 7 17 4 6 -4 8 1 6 12 -2 11 -10 18 -17 16
-7 -1 -10 2 -6 8 4 6 16 8 28 5 12 -2 16 -2 9 1 -6 3 -10 10 -6 15 3 5 -3 9
-13 9 -15 0 -15 2 -4 9 8 5 16 20 18 33 l3 23 -20 -24 c-26 -30 -26 -14 0 19
11 14 20 30 20 35 0 6 -5 3 -10 -5 -8 -12 -10 -10 -10 10 0 15 6 32 13 39 10
11 10 13 0 7 -7 -4 -13 -2 -13 4 0 6 -5 8 -12 4 -7 -4 -8 -3 -4 5 4 6 11 9 16
6 4 -3 11 2 14 11 9 24 7 31 -5 14 -8 -12 -9 -9 -5 12 3 14 9 34 13 45 6 16 5
16 -10 4 -9 -7 -14 -18 -10 -24 4 -6 1 -7 -6 -2 -9 5 -10 10 -2 18 15 15 14
30 -1 21 -10 -6 -10 -4 0 7 15 16 16 33 0 23 -7 -4 -8 -3 -4 5 11 17 29 2 21
-18 -5 -12 -4 -13 6 -4 9 9 9 16 1 25 -5 7 -10 17 -10 21 0 5 -4 12 -8 15 -4
4 -4 2 -1 -4 3 -6 0 -11 -8 -11 -11 0 -12 4 -4 14 6 7 15 10 20 7 5 -3 9 2 9
11 0 9 -3 14 -8 12 -4 -3 -7 8 -7 24 -1 17 4 29 12 29 7 0 13 5 13 11 0 5 -4
7 -10 4 -14 -9 -12 8 3 24 6 8 8 12 2 9 -5 -3 -19 4 -30 15 l-20 20 22 -12
c31 -16 35 -14 21 8 -7 11 -16 17 -22 14 -5 -4 -6 -1 -2 6 5 7 14 10 21 8 11
-5 13 7 6 46 0 5 -6 5 -12 1 -8 -4 -7 -9 2 -15 7 -4 10 -11 6 -16 -15 -14 -27
21 -13 37 13 15 11 44 -3 36 -4 -3 -8 1 -8 9 0 8 4 12 9 9 4 -3 8 4 8 15 0 10
6 22 13 24 9 4 8 6 -2 6 -11 1 -11 4 0 18 10 11 10 14 2 9 -14 -8 -18 6 -6 18
9 9 11 46 2 41 -14 -10 -15 46 -1 66 9 12 11 19 5 16 -6 -4 -16 0 -22 7 -9 11
-9 16 0 21 8 6 7 10 -2 16 -11 7 -10 9 4 9 20 0 22 -11 5 -28 -9 -9 -9 -12 0
-12 7 0 13 3 13 8 6 32 5 51 -2 47 -4 -3 -11 0 -15 6 -4 8 -3 9 4 5 7 -4 12
-2 12 4 0 6 5 8 10 5 7 -4 9 3 6 19 -3 15 -1 24 4 21 5 -3 13 3 19 12 6 10 11
14 11 9 0 -5 -7 -17 -16 -27 -12 -13 -12 -19 -3 -25 8 -4 10 -3 5 5 -4 6 1 14
13 19 19 7 21 10 21 32 0 6 4 10 10 10 5 0 7 -8 3 -17 -5 -15 -3 -14 10 2 8
11 13 24 10 29 -4 5 -1 6 6 2 6 -4 8 -13 4 -19 -4 -7 0 -7 10 1 9 8 20 12 24
9 11 -7 33 19 25 29 -4 5 3 0 16 -10 14 -12 22 -15 22 -7 0 8 5 7 16 -3 19
-20 31 -21 15 -2 -8 10 -8 16 2 25 14 11 27 5 27 -13 0 -6 -4 -5 -9 3 -6 9
-11 10 -15 2 -4 -6 -4 -11 1 -12 4 0 17 -3 28 -5 11 -3 29 -6 40 -8 11 -2 29
-7 40 -11 l20 -8 -20 17 c-19 16 -19 16 8 5 15 -7 27 -19 28 -28 0 -10 2 -12
6 -3 2 6 12 12 21 12 14 0 14 -2 3 -9 -7 -5 -10 -14 -7 -20 4 -6 12 -9 17 -5
12 7 61 -35 54 -46 -2 -4 0 -22 5 -40 9 -30 8 -32 -8 -19 -10 8 -5 2 10 -12
l29 -26 -26 3 c-15 1 -24 -1 -20 -4 4 -4 12 -7 18 -7 6 0 12 -12 12 -27 1 -15
-2 -25 -6 -22 -4 2 -6 13 -4 24 3 14 -1 17 -13 13 -11 -5 -12 -8 -4 -11 10 -3
10 -7 0 -20 -10 -12 -10 -14 0 -8 7 4 12 1 12 -9 0 -9 4 -14 8 -11 5 3 8 -5 7
-17 -1 -12 -7 -22 -12 -22 -6 0 -15 -4 -20 -9 -5 -5 -3 -6 5 -2 16 9 16 -6 0
-23 -8 -8 -8 -11 -2 -8 16 9 26 -34 12 -50 -6 -7 -7 -13 -3 -13 4 0 1 -8 -6
-17 -8 -9 -9 -14 -3 -10 6 4 16 -5 23 -21 10 -24 10 -25 -3 -9 -12 16 -14 16
-20 2 -3 -9 -2 -13 4 -10 6 4 10 -5 9 -22 -3 -56 1 -73 19 -74 12 -1 10 -3 -6
-7 -26 -8 -26 -9 -17 -34 4 -10 12 -15 18 -11 6 4 7 1 1 -8 -5 -8 -9 -27 -10
-44 -1 -19 -6 -29 -14 -27 -10 2 -11 -1 -3 -10 13 -17 13 -81 -1 -90 -8 -5 -7
-8 1 -8 6 0 10 -9 8 -20 -2 -11 1 -22 6 -26 6 -3 3 -12 -8 -21 -10 -8 -12 -12
-5 -8 6 3 12 1 12 -5 0 -6 5 -8 10 -5 6 3 10 1 10 -4 0 -6 -7 -11 -16 -11 -10
0 -12 -4 -7 -12 9 -15 5 -48 -8 -64 -6 -7 -4 -16 6 -24 14 -11 13 -14 -2 -27
-10 -8 -12 -12 -5 -8 6 3 12 1 12 -5 0 -6 5 -8 10 -5 6 3 10 1 10 -4 0 -6 -7
-11 -15 -11 -14 0 -13 -3 1 -27 11 -20 12 -23 1 -10 -13 16 -15 16 -21 2 -4
-11 -2 -14 6 -9 7 5 9 0 6 -14 -6 -23 7 -31 15 -9 3 6 4 2 4 -10 -1 -18 -6
-22 -22 -18 -11 3 -14 2 -7 -1 6 -3 12 -10 12 -15 0 -6 -6 -7 -12 -3 -7 4 -5
-2 6 -14 10 -12 24 -19 30 -15 6 4 6 0 -1 -9 -7 -8 -9 -19 -5 -23 4 -5 1 -5
-6 -1 -7 4 -10 12 -7 17 3 5 -1 6 -9 3 -9 -3 -16 -10 -16 -16 0 -5 5 -6 10 -3
5 3 10 -1 10 -10 0 -10 5 -13 12 -9 8 5 8 3 2 -7 -5 -8 -9 -27 -10 -44 -1 -19
-6 -29 -14 -27 -10 2 -11 -1 -3 -10 13 -17 13 -81 -1 -90 -8 -6 -8 -8 1 -8 6
0 10 -8 8 -18 -1 -9 2 -25 7 -36 7 -12 7 -16 0 -12 -6 3 -14 1 -18 -5 -5 -8
-3 -9 5 -4 9 5 11 -1 8 -24 -3 -17 -2 -29 2 -27 4 3 13 -5 20 -17 11 -18 11
-20 0 -9 -13 12 -38 18 -26 5 4 -3 1 -13 -6 -21 -9 -13 -9 -14 1 -8 7 4 12 2
13 -6 0 -7 2 -21 4 -31 2 -9 -1 -15 -5 -12 -5 3 -12 0 -16 -6 -5 -8 -3 -9 5
-4 9 5 11 -1 8 -23 -3 -17 -8 -36 -13 -43 -4 -8 -3 -10 5 -5 7 5 11 -2 10 -21
-3 -57 1 -73 19 -74 17 -1 16 -1 -27 -15 -10 -3 -11 -7 -1 -19 7 -8 10 -22 6
-30 -3 -9 -2 -13 4 -10 6 3 10 1 10 -4 0 -6 -5 -11 -11 -11 -5 0 -8 -4 -5 -9
4 -5 0 -12 -6 -14 -10 -4 -10 -6 0 -6 6 -1 12 -6 12 -12 0 -5 -6 -7 -12 -3
-10 6 -10 4 -2 -7 14 -18 14 -82 0 -91 -8 -6 -8 -8 1 -8 6 0 10 -8 8 -17 -1
-10 2 -26 7 -37 7 -12 7 -16 0 -12 -6 3 -14 1 -18 -5 -5 -8 -3 -9 5 -4 9 5 12
1 10 -11 -2 -11 0 -25 5 -33 6 -9 5 -12 -2 -7 -6 3 -13 2 -16 -3 -4 -5 -3 -12
2 -15 4 -2 9 -21 10 -41 2 -28 0 -35 -10 -29 -10 6 -10 5 0 -8 9 -11 10 -18 2
-23 -16 -10 -2 -25 18 -19 9 2 7 -1 -5 -7 -26 -14 -30 -26 -8 -26 8 0 12 3 10
7 -2 4 3 7 12 7 12 0 10 -5 -7 -19 -26 -21 -34 -44 -19 -54 5 -3 6 -10 3 -16
-4 -7 -2 -8 5 -4 9 6 9 11 -1 23 -12 15 -11 15 9 3 12 -8 19 -19 15 -25 -10
-16 -11 -36 -1 -29 5 3 7 10 4 15 -4 5 -1 9 4 9 6 0 11 -7 11 -15 0 -14 12
-19 33 -16 4 0 7 -5 7 -11 0 -9 4 -8 10 2 8 13 10 12 10 -3 0 -10 5 -15 10
-12 6 4 8 12 4 18 -3 7 2 3 10 -7 14 -17 16 -17 16 -3 0 10 5 14 14 11 8 -3
17 -1 21 5 3 6 12 11 18 11 7 0 6 -4 -3 -10 -8 -5 -10 -10 -4 -10 5 0 19 7 30
16 10 8 12 12 4 8 -12 -7 -13 -5 -3 8 7 8 10 18 6 22 -4 4 0 4 9 1 22 -9 41 3
31 18 -4 7 -8 17 -10 22 -10 46 -13 57 -18 68 -4 6 0 3 9 -7 8 -10 13 -22 11
-27 -3 -4 -1 -10 4 -14 10 -6 6 33 -4 43 -2 3 0 11 7 19 8 10 8 12 -4 8 -9 -4
-18 0 -21 9 -4 10 -1 13 9 9 7 -3 14 0 14 6 0 6 -4 12 -10 12 -5 1 -14 2 -19
3 -5 0 -13 5 -18 10 -4 5 -3 6 4 2 7 -4 17 2 22 13 14 26 14 34 -1 25 -10 -6
-10 -4 0 7 15 16 16 33 0 23 -7 -4 -8 -3 -4 5 4 6 11 9 15 7 4 -3 13 0 21 6
12 8 12 9 -2 4 -12 -3 -22 2 -29 16 -8 15 -8 18 0 14 15 -10 14 7 -1 23 -7 8
-8 12 -3 9 6 -3 19 4 30 15 11 11 16 18 10 15 -5 -3 -19 4 -29 15 -18 19 -18
20 -2 14 13 -5 17 -3 13 7 -3 7 0 19 6 25 6 6 7 11 2 11 -6 0 -3 5 5 11 13 9
13 10 0 6 -8 -2 -14 -10 -12 -16 4 -18 -15 -13 -22 6 -4 10 -4 14 0 11 3 -4
13 -1 20 7 20 20 17 27 -5 15 -14 -7 -22 -7 -26 0 -4 6 -3 9 2 8 4 -2 19 5 33
15 l25 18 -30 -6 -30 -6 28 16 c29 17 37 31 12 21 -9 -3 -19 3 -26 17 -11 19
-10 20 3 9 13 -10 17 -10 20 0 3 7 3 19 1 26 -4 10 -8 10 -21 0 -10 -7 -6 0 7
15 14 15 20 27 15 27 -5 0 -2 5 6 11 13 9 13 10 -1 6 -11 -4 -20 3 -28 19 -7
17 -7 23 1 21 6 -1 13 4 16 12 3 10 0 12 -11 8 -9 -3 -18 -3 -21 1 -3 4 5 9
16 9 12 1 26 7 32 14 8 9 7 11 -5 6 -9 -3 -22 -1 -30 4 -11 7 -11 9 4 9 9 0
17 7 17 15 0 8 -4 15 -9 15 -5 0 -12 7 -15 16 -5 14 -4 15 8 5 15 -13 27 3 19
27 -4 10 -8 10 -21 0 -11 -8 -10 -4 3 12 11 14 25 28 30 32 6 5 6 8 -2 8 -6 0
-15 -5 -18 -10 -3 -6 -12 -10 -18 -9 -9 0 -9 2 1 6 6 2 12 9 12 14 0 6 -5 7
-12 3 -7 -4 -8 -3 -4 5 4 6 11 9 15 7 4 -3 13 0 21 6 12 8 12 9 -2 4 -10 -3
-20 -1 -23 4 -4 6 1 10 9 10 8 0 18 5 21 10 4 7 -3 9 -22 4 -27 -6 -27 -6 -8
9 11 8 24 13 29 10 5 -4 6 -1 2 6 -6 9 -11 9 -21 1 -10 -8 -15 -8 -21 1 -4 7
-3 10 2 7 5 -3 18 4 29 15 11 11 16 18 10 15 -5 -3 -18 3 -27 13 -14 15 -14
18 -2 23 10 4 12 2 8 -6 -4 -7 -3 -8 5 -4 6 4 9 11 6 16 -3 4 -2 10 2 13 5 2
2 2 -4 1 -7 -2 -18 7 -24 19 -11 19 -10 21 3 9 13 -10 18 -10 24 -1 4 8 3 9
-4 5 -7 -4 -12 -3 -12 2 0 6 7 13 16 16 9 4 14 9 11 12 -3 3 -14 1 -26 -5 -13
-8 -22 -8 -26 -1 -4 6 -3 10 2 9 4 -1 15 -1 23 0 12 1 11 5 -4 16 -11 8 -15
15 -10 15 6 0 18 6 28 13 17 13 18 14 2 20 -10 4 -15 3 -11 -3 3 -6 4 -10 1
-10 -3 0 -10 9 -16 19 -9 17 -7 19 10 16 11 -2 18 0 15 6 -4 5 0 9 7 9 7 0 0
13 -17 27 -27 24 -27 26 -7 21 12 -4 20 -2 17 2 -3 5 -2 10 2 13 5 2 3 3 -3 1
-6 -1 -17 9 -23 22 -6 14 -7 23 -2 19 11 -6 20 6 26 34 4 19 -8 22 -35 7 -8
-4 -5 1 8 12 23 21 29 42 11 42 -6 0 -3 7 6 16 15 15 15 18 0 34 -12 13 -13
23 -6 44 6 14 16 26 23 26 8 0 9 3 3 8 -16 11 -19 46 -3 36 11 -6 11 -5 0 8
-9 11 -9 18 -2 21 6 3 5 4 -2 3 -7 -2 -13 -8 -13 -13 0 -6 -4 -15 -9 -20 -5
-5 -6 -3 -2 5 4 7 2 12 -6 12 -7 0 1 9 17 21 22 15 25 19 10 17 -14 -2 -20 3
-21 18 -1 12 -5 27 -9 34 -5 9 -4 11 3 6 14 -8 12 -15 25 91 3 18 1 30 -4 27
-5 -3 -7 -10 -4 -15 4 -5 1 -9 -5 -9 -7 0 -9 8 -5 21 4 13 3 19 -2 16 -5 -4
-10 0 -10 8 0 8 4 12 8 9 4 -2 9 -1 12 3 2 5 2 1 0 -7 -2 -8 0 -11 4 -6 9 9
12 67 3 61 -3 -2 -12 0 -20 6 -13 7 -12 9 2 9 9 0 20 5 24 12 4 6 3 8 -3 5 -6
-4 -15 6 -22 21 -11 25 -10 26 4 8 12 -17 17 -18 28 -6 9 10 9 12 0 6 -12 -7
-18 6 -14 28 1 5 -5 6 -14 3 -8 -4 -15 -2 -15 3 0 6 9 10 19 10 25 0 34 27 13
39 -9 6 -12 11 -7 11 6 0 -1 7 -14 14 -20 11 -21 14 -7 19 10 4 15 3 11 -3 -3
-6 -2 -10 3 -10 5 0 10 11 10 25 0 14 -4 25 -9 25 -5 0 -9 5 -9 11 0 5 5 7 11
3 6 -3 3 8 -6 26 -13 24 -14 35 -5 44 8 8 10 7 5 -6 -5 -12 -1 -20 9 -24 9 -3
13 -11 9 -17 -4 -6 -1 -7 7 -2 10 6 9 11 -5 21 -16 12 -16 16 -4 31 9 11 10
14 2 9 -7 -4 -13 -2 -13 4 0 6 7 13 15 16 14 6 13 8 -2 19 -10 7 -21 11 -25 9
-5 -3 -8 0 -8 6 0 7 7 10 15 6 11 -4 14 1 11 17 -2 12 2 28 8 36 9 12 7 12
-12 2 -13 -7 -26 -10 -29 -7 -3 3 2 8 11 12 13 5 14 9 5 20 -6 8 -8 14 -5 14
4 0 2 10 -5 21 -7 13 -7 19 -1 15 6 -4 10 2 9 14 -1 20 -12 27 -20 13 -2 -5
-2 -2 -1 5 2 6 -1 12 -6 12 -6 0 -10 8 -10 18 0 14 -2 15 -10 2 -6 -9 -10 -10
-10 -3 0 6 5 15 11 19 8 5 6 10 -5 16 -9 5 -21 6 -28 2 -7 -5 -8 -3 -3 6 6 10
4 12 -8 7 -11 -4 -14 -2 -10 9 3 7 0 14 -7 14 -7 0 -19 8 -27 18 -8 9 -12 11
-8 5 3 -7 1 -13 -4 -13 -6 0 -11 8 -11 18 0 14 -2 15 -10 2 -8 -12 -10 -12
-10 -1 0 10 -4 11 -13 3 -16 -13 -52 11 -43 30 4 7 1 5 -6 -4 -11 -15 -14 -15
-32 5 -14 16 -18 18 -13 5 3 -10 1 -20 -5 -24 -7 -4 -8 -3 -4 4 4 7 2 12 -4
12 -6 0 -9 4 -6 9 4 5 -2 8 -11 6 -10 -2 -22 -4 -26 -4 -5 -1 -5 -6 -1 -13 4
-7 3 -8 -5 -4 -9 6 -9 11 1 24 12 13 10 14 -9 4 -27 -15 -56 -16 -48 -2 4 6
-1 7 -11 3 -13 -5 -15 -3 -9 8 8 12 6 12 -8 0 -19 -15 -23 -26 -5 -15 7 4 8 3
4 -4 -7 -12 -33 -6 -57 15 -14 11 -18 11 -27 0 -7 -8 -9 -16 -7 -19 3 -3 -4
-8 -15 -11 -16 -4 -19 -2 -11 7 7 8 5 12 -9 12 -10 0 -16 -4 -14 -8 3 -4 -6
-8 -20 -8 -14 0 -28 -5 -31 -10 -5 -7 -11 -8 -18 -1 -14 11 -51 -11 -40 -23 4
-4 -1 -4 -11 0 -14 5 -17 4 -12 -4 10 -17 0 -15 -17 3 -13 13 -16 11 -27 -15
-7 -17 -17 -30 -23 -30 -7 0 -7 4 1 12 20 20 14 29 -7 11 -11 -9 -17 -21 -14
-27 4 -6 0 -5 -9 2 -13 10 -18 9 -29 -5 -12 -16 -12 -17 2 -6 13 10 16 10 16
-2 0 -8 -3 -13 -5 -10 -3 3 -11 0 -19 -6 -15 -13 -43 4 -43 27 0 8 -5 13 -12
12 -7 -2 -12 3 -13 10 0 6 -2 11 -5 10 -3 -1 -20 7 -38 17 -29 17 -34 18 -43
5 -9 -13 -10 -12 -5 2 3 10 1 20 -4 23 -6 4 -10 1 -10 -6 0 -6 -9 -1 -21 12
-11 13 -18 18 -14 12 3 -7 1 -13 -4 -13 -6 0 -11 6 -11 13 0 8 -4 7 -10 -3 -6
-10 -10 -11 -10 -2 0 6 -5 12 -11 12 -5 0 -8 -4 -5 -9 9 -14 -19 -7 -40 9 -11
9 -15 10 -10 3 11 -19 -5 -15 -20 5 -13 16 -14 16 -8 -2 6 -16 4 -17 -14 -7
-17 9 -22 9 -23 -1 0 -7 -4 -4 -9 7 -8 19 -9 19 -9 1z m734 -6 c3 -5 -1 -10
-10 -10 -9 0 -13 5 -10 10 3 6 8 10 10 10 2 0 7 -4 10 -10z m85 -146 c0 -8
-19 -13 -24 -6 -3 5 1 9 9 9 8 0 15 -2 15 -3z m-1000 -39 c-13 -14 -26 -22
-29 -19 -3 4 0 9 7 11 6 3 9 10 6 15 -4 6 -2 8 4 4 6 -3 13 -2 17 4 3 5 9 10
12 10 4 0 -4 -11 -17 -25z m-90 -159 c0 -3 -4 -8 -10 -11 -5 -3 -10 -1 -10 4
0 6 5 11 10 11 6 0 10 -2 10 -4z m760 0 c0 -3 -4 -8 -10 -11 -5 -3 -10 -1 -10
4 0 6 5 11 10 11 6 0 10 -2 10 -4z m748 -40 c-7 -8 -17 -12 -22 -9 -4 3 -2 9
5 14 22 13 31 11 17 -5z m-1504 -37 c-3 -5 -11 -9 -17 -8 -8 0 -8 2 1 6 10 4
10 8 0 21 -12 15 -11 16 4 3 10 -7 15 -17 12 -22z m759 -14 c4 -8 2 -17 -4
-20 -5 -4 -7 -18 -5 -32 3 -14 2 -23 -1 -19 -12 11 -12 40 -1 53 10 12 4 17
-15 14 -5 -1 -6 3 -2 9 9 14 22 12 28 -5z m514 -70 c0 -8 -4 -12 -9 -9 -5 3
-6 10 -3 15 9 13 12 11 12 -6z m217 -80 c-4 -10 0 -12 17 -8 14 4 20 2 16 -5
-12 -18 -42 -7 -43 16 -1 12 2 19 7 16 4 -2 6 -11 3 -19z m-214 -6 c0 -5 -4
-9 -8 -9 -5 0 -9 7 -9 15 0 8 4 12 9 9 4 -3 8 -9 8 -15z m-1275 -49 c3 -6 -1
-7 -9 -4 -18 7 -21 14 -7 14 6 0 13 -4 16 -10z m1275 -30 c0 -5 -5 -10 -11
-10 -5 0 -7 5 -4 10 3 6 8 10 11 10 2 0 4 -4 4 -10z m-749 -17 c13 -16 12 -17
-3 -4 -17 13 -22 21 -14 21 2 0 10 -8 17 -17z m224 -33 c3 -6 -1 -7 -9 -4 -18
7 -21 14 -7 14 6 0 13 -4 16 -10z m-759 -46 c-7 -38 -14 -40 -12 -5 0 17 4 31
9 31 4 0 5 -12 3 -26z m1524 22 c0 -2 -7 -7 -16 -10 -8 -3 -12 -2 -9 4 6 10
25 14 25 6z m-245 -26 c3 -6 -1 -7 -9 -4 -18 7 -21 14 -7 14 6 0 13 -4 16 -10z
m-1280 -68 c-3 -3 -11 0 -18 7 -9 10 -8 11 6 5 10 -3 15 -9 12 -12z m1525 -6
c0 -3 -4 -8 -10 -11 -5 -3 -10 -1 -10 4 0 6 5 11 10 11 6 0 10 -2 10 -4z
m-1515 -16 c3 -6 -1 -7 -9 -4 -18 7 -21 14 -7 14 6 0 13 -4 16 -10z m-241 -16
c3 -8 2 -12 -4 -9 -6 3 -10 10 -10 16 0 14 7 11 14 -7z m761 7 c3 -5 2 -12 -3
-15 -5 -3 -9 1 -9 9 0 17 3 19 12 6z m755 -41 c0 -5 -2 -10 -4 -10 -3 0 -8 5
-11 10 -3 6 -1 10 4 10 6 0 11 -4 11 -10z m-1523 -52 c-3 -8 -6 -5 -6 6 -1 11
2 17 5 13 3 -3 4 -12 1 -19z m243 -27 c0 -6 -4 -12 -8 -15 -5 -3 -9 1 -9 9 0
8 4 15 9 15 4 0 8 -4 8 -9z m-3 -95 c0 -12 2 -27 4 -35 2 -7 -3 -16 -11 -18
-13 -4 -13 -3 0 6 9 6 10 11 3 11 -6 0 -10 8 -8 18 1 9 -1 22 -6 28 -5 6 -4
11 4 11 7 0 13 -10 14 -21z m1520 8 c-3 -3 -12 -4 -19 -1 -8 3 -5 6 6 6 11 1
17 -2 13 -5z m-242 -83 c-3 -6 -11 -11 -17 -11 -6 0 -6 6 2 15 14 17 26 13 15
-4z m240 -11 c-3 -5 -12 -10 -18 -10 -7 0 -6 4 3 10 19 12 23 12 15 0z m-1515
-59 c0 -6 -4 -12 -8 -15 -5 -3 -9 1 -9 9 0 8 4 15 9 15 4 0 8 -4 8 -9z m540
-35 c0 -2 -7 -7 -16 -10 -8 -3 -12 -2 -9 4 6 10 25 14 25 6z m980 0 c0 -2 -7
-7 -16 -10 -8 -3 -12 -2 -9 4 6 10 25 14 25 6z m-1525 -54 c-3 -3 -11 0 -18 7
-9 10 -8 11 6 5 10 -3 15 -9 12 -12z m530 -21 c3 -5 2 -12 -3 -15 -5 -3 -9 1
-9 9 0 17 3 19 12 6z m-761 -17 c3 -8 2 -12 -4 -9 -6 3 -10 10 -10 16 0 14 7
11 14 -7z m1756 -32 c0 -5 -7 -9 -15 -9 -8 0 -12 4 -9 9 3 4 9 8 15 8 5 0 9
-4 9 -8z m-1525 -117 c-2 -62 -11 -66 -11 -5 0 28 3 50 7 50 4 0 6 -20 4 -45z
m770 17 c-3 -3 -11 0 -18 7 -9 10 -8 11 6 5 10 -3 15 -9 12 -12z m-1 -63 c-3
-5 -10 -7 -15 -3 -5 3 -7 10 -3 15 3 5 10 7 15 3 5 -3 7 -10 3 -15z m516 1 c0
-5 -2 -10 -4 -10 -3 0 -8 5 -11 10 -3 6 -1 10 4 10 6 0 11 -4 11 -10z m-9
-173 c-10 -9 -11 -8 -5 6 3 10 9 15 12 12 3 -3 0 -11 -7 -18z m-1266 -27 c-3
-5 -12 -10 -18 -10 -7 0 -6 4 3 10 19 12 23 12 15 0z m-10 -29 c3 -5 2 -12 -3
-15 -5 -3 -9 1 -9 9 0 17 3 19 12 6z m1276 -104 c-10 -9 -11 -8 -5 6 3 10 9
15 12 12 3 -3 0 -11 -7 -18z m-1274 -19 c1 -10 -3 -18 -9 -18 -6 0 -8 3 -5 7
4 3 2 11 -3 18 -7 8 -6 12 3 12 7 0 14 -9 14 -19z m1277 -14 c3 -8 2 -12 -4
-9 -6 3 -10 10 -10 16 0 14 7 11 14 -7z m-1279 -23 c3 -5 2 -12 -3 -15 -5 -3
-9 1 -9 9 0 17 3 19 12 6z m536 -24 c-10 -9 -11 -8 -5 6 3 10 9 15 12 12 3 -3
0 -11 -7 -18z m749 13 c0 -5 -5 -10 -11 -10 -5 0 -7 5 -4 10 3 6 8 10 11 10 2
0 4 -4 4 -10z m-743 -50 c-5 -29 -13 -33 -13 -5 0 14 4 25 8 25 4 0 7 -9 5
-20z m980 4 c-3 -3 -12 -4 -19 -1 -8 3 -5 6 6 6 11 1 17 -2 13 -5z m-240 -50
c-3 -3 -12 -4 -19 -1 -8 3 -5 6 6 6 11 1 17 -2 13 -5z m-741 -23 c-4 -5 -1
-12 4 -14 6 -3 5 -4 -2 -3 -15 3 -23 26 -8 26 6 0 9 -4 6 -9z m-539 -65 c0 -6
2 -17 4 -25 2 -7 -3 -16 -11 -18 -13 -4 -13 -3 0 6 12 9 13 11 1 11 -8 0 -11
3 -8 7 4 3 2 11 -3 18 -7 8 -5 12 3 12 8 0 14 -5 14 -11z m1278 4 c-3 -5 -1
-10 6 -10 7 0 10 -3 6 -6 -9 -9 -28 6 -22 17 4 5 8 9 11 9 3 0 2 -4 -1 -10z
m5 -60 c0 -5 -2 -10 -4 -10 -3 0 -8 5 -11 10 -3 6 -1 10 4 10 6 0 11 -4 11
-10z m-1284 -106 c-1 -8 -6 -17 -12 -21 -5 -4 -6 -4 -2 1 4 5 3 14 -2 21 -7 8
-5 12 4 12 8 0 13 -6 12 -13z m1275 -67 c-10 -9 -11 -8 -5 6 3 10 9 15 12 12
3 -3 0 -11 -7 -18z m4 -45 c-3 -3 -11 0 -18 7 -9 10 -8 11 6 5 10 -3 15 -9 12
-12z m5 -22 c0 -5 -2 -10 -4 -10 -3 0 -8 5 -11 10 -3 6 -1 10 4 10 6 0 11 -4
11 -10z m-1280 -34 c0 -3 -4 -8 -10 -11 -5 -3 -10 -1 -10 4 0 6 5 11 10 11 6
0 10 -2 10 -4z m1290 -40 c0 -2 -9 -6 -20 -9 -11 -3 -18 -1 -14 4 5 9 34 13
34 5z m-1284 -17 c3 -6 1 -16 -6 -22 -10 -9 -12 -8 -7 5 4 11 0 18 -11 21 -16
4 -16 5 0 6 9 0 20 -4 24 -10z m1507 -99 c-6 -7 -23 23 -23 40 0 8 6 4 13 -10
8 -14 12 -27 10 -30z m-229 31 c4 -5 -3 -7 -14 -4 -23 6 -26 13 -6 13 8 0 17
-4 20 -9z m-709 -19 c-3 -3 1 -12 7 -21 7 -9 8 -13 4 -9 -5 4 -14 4 -21 -2 -8
-6 -11 -2 -11 14 0 12 6 23 13 23 7 0 11 -3 8 -5z m260 -62 c-3 -5 -12 -10
-18 -10 -7 0 -6 4 3 10 19 12 23 12 15 0z m20 -80 c3 -5 1 -10 -4 -10 -6 0
-11 5 -11 10 0 6 2 10 4 10 3 0 8 -4 11 -10z"/>
<path d="M2015 2801 c-3 -5 -2 -12 3 -15 5 -3 9 1 9 9 0 17 -3 19 -12 6z"/>
<path d="M1365 2721 c-6 -11 13 -26 22 -17 4 3 1 6 -6 6 -7 0 -9 5 -6 10 3 6
4 10 1 10 -3 0 -7 -4 -11 -9z"/>
<path d="M915 2670 c-3 -5 -1 -10 4 -10 6 0 11 5 11 10 0 6 -2 10 -4 10 -3 0
-8 -4 -11 -10z"/>
<path d="M1675 2670 c-3 -5 -1 -10 4 -10 6 0 11 5 11 10 0 6 -2 10 -4 10 -3 0
-8 -4 -11 -10z"/>
<path d="M1940 2601 c0 -6 5 -11 11 -11 5 0 7 -4 4 -10 -3 -5 -1 -10 4 -10 16
0 13 16 -4 30 -10 9 -15 9 -15 1z"/>
<path d="M1194 2578 c-4 -7 -3 -8 4 -4 11 7 17 -6 13 -27 -1 -5 3 -6 9 -2 7 4
7 12 0 26 -12 22 -16 23 -26 7z"/>
<path d="M1496 2461 c-3 -5 2 -15 12 -22 15 -12 16 -12 5 2 -7 9 -10 19 -6 22
3 4 4 7 0 7 -3 0 -8 -4 -11 -9z"/>
<path d="M1973 2385 c0 -8 6 -16 14 -19 11 -4 11 -1 3 14 -13 24 -17 25 -17 5z"/>
<path d="M725 2350 c-1 -21 3 -26 14 -22 9 4 11 7 4 9 -7 3 -10 10 -7 18 3 7
2 15 -3 18 -4 3 -8 -7 -8 -23z"/>
<path d="M1975 2280 c3 -5 8 -10 11 -10 2 0 4 5 4 10 0 6 -5 10 -11 10 -5 0
-7 -4 -4 -10z"/>
<path d="M1970 1999 c0 -5 5 -7 10 -4 6 3 10 8 10 11 0 2 -4 4 -10 4 -5 0 -10
-5 -10 -11z"/>
<path d="M2249 1908 c-7 -23 -3 -45 8 -41 9 4 10 9 3 18 -5 6 -7 15 -3 18 3 4
3 7 0 7 -4 0 -7 -1 -8 -2z"/>
<path d="M2245 1700 c-3 -5 -2 -10 4 -10 5 0 13 5 16 10 3 6 2 10 -4 10 -5 0
-13 -4 -16 -10z"/>
<path d="M1490 1520 c0 -5 7 -7 15 -4 8 4 15 8 15 10 0 2 -7 4 -15 4 -8 0 -15
-4 -15 -10z"/>
<path d="M2245 1520 c-3 -5 -2 -10 4 -10 5 0 13 5 16 10 3 6 2 10 -4 10 -5 0
-13 -4 -16 -10z"/>
<path d="M727 1439 c7 -9 10 -19 6 -22 -3 -4 -1 -7 5 -7 17 0 15 16 -5 31 -16
12 -17 12 -6 -2z"/>
<path d="M1970 1359 c0 -5 5 -7 10 -4 6 3 10 8 10 11 0 2 -4 4 -10 4 -5 0 -10
-5 -10 -11z"/>
<path d="M1230 1339 c0 -5 5 -7 10 -4 6 3 10 8 10 11 0 2 -4 4 -10 4 -5 0 -10
-5 -10 -11z"/>
<path d="M1226 1218 c3 -5 10 -6 15 -3 13 9 11 12 -6 12 -8 0 -12 -4 -9 -9z"/>
<path d="M723 1135 c0 -7 6 -11 14 -8 7 3 13 6 13 8 0 2 -6 5 -13 8 -8 3 -14
-1 -14 -8z"/>
<path d="M1230 1099 c0 -5 5 -7 10 -4 6 3 10 8 10 11 0 2 -4 4 -10 4 -5 0 -10
-5 -10 -11z"/>
<path d="M2245 880 c-3 -5 -2 -10 4 -10 5 0 13 5 16 10 3 6 2 10 -4 10 -5 0
-13 -4 -16 -10z"/>
<path d="M1510 795 c-7 -9 -11 -17 -9 -20 3 -2 10 5 17 15 14 24 10 26 -8 5z"/>
<path d="M1247 543 c4 -11 2 -14 -5 -9 -18 11 -14 0 6 -15 9 -7 14 -9 10 -5
-4 5 -3 15 2 21 8 9 6 14 -4 18 -11 4 -13 1 -9 -10z"/>
<path d="M1500 540 c0 -6 7 -10 15 -10 8 0 15 2 15 4 0 2 -7 6 -15 10 -8 3
-15 1 -15 -4z"/>
<path d="M2246 532 c-3 -5 1 -9 9 -9 8 0 12 4 9 9 -3 4 -7 8 -9 8 -2 0 -6 -4
-9 -8z"/>
<path d="M2245 500 c-3 -5 -2 -10 4 -10 5 0 13 5 16 10 3 6 2 10 -4 10 -5 0
-13 -4 -16 -10z"/>
<path d="M1233 445 c0 -8 4 -12 9 -9 5 3 6 10 3 15 -9 13 -12 11 -12 -6z"/>
<path d="M2246 441 c-3 -5 2 -15 12 -22 15 -13 16 -12 4 3 -10 13 -10 17 0 21
9 4 9 6 1 6 -6 1 -14 -3 -17 -8z"/>
<path d="M1245 400 c-3 -5 -1 -10 4 -10 6 0 11 5 11 10 0 6 -2 10 -4 10 -3 0
-8 -4 -11 -10z"/>
<path d="M2236 393 c-4 -9 -4 -14 0 -10 4 4 14 1 23 -6 14 -11 15 -10 1 8 -8
11 -15 21 -16 23 -1 2 -5 -5 -8 -15z"/>
<path d="M1264 326 c1 -8 5 -18 8 -22 4 -3 5 1 4 10 -1 8 -5 18 -8 22 -4 3 -5
-1 -4 -10z"/>
<path d="M1535 321 c-3 -5 -2 -12 3 -15 5 -3 9 1 9 9 0 17 -3 19 -12 6z"/>
<path d="M2230 179 c0 -5 5 -7 10 -4 6 3 10 8 10 11 0 2 -4 4 -10 4 -5 0 -10
-5 -10 -11z"/>
<path d="M478 173 c7 -3 16 -2 19 1 4 3 -2 6 -13 5 -11 0 -14 -3 -6 -6z"/>
<path d="M1586 137 c3 -10 9 -15 12 -12 3 3 0 11 -7 18 -10 9 -11 8 -5 -6z"/>
</g>
</svg>
